<?xml version="1.0" encoding="UTF-8"?>
<svg id="a" data-name="Layer 1" xmlns="http://www.w3.org/2000/svg" viewBox="0 0 612 792">
  <defs>
    <style>
      .b {
        fill: #231f20;
      }

      .c {
        fill: #f04f26;
      }
    </style>
  </defs>
  <g>
    <path class="b" d="M466.31,544.44H141.86c-73.41,0-133.13-54.96-133.13-122.51V123.36C8.73,55.81,68.45.85,141.86.85h324.45c73.41,0,133.13,54.96,133.13,122.51v298.57c0,67.55-59.72,122.51-133.13,122.51ZM141.86,22.54c-60.41,0-109.56,45.23-109.56,100.82v298.57c0,55.59,49.15,100.82,109.56,100.82h324.45c60.41,0,109.56-45.23,109.56-100.82V123.36c0-55.59-49.15-100.82-109.56-100.82H141.86Z"/>
    <g>
      <path class="b" d="M226.53,201.62H96.61v-48.58h206.84v45.64l-140.96,168.56h144.64v48.58H85.57v-45.64l140.96-168.56Z"/>
      <path class="b" d="M522.61,153.04v48.58h-126.97v60.72h110.04v44.9h-110.04v108.57h-57.78V153.04h184.75Z"/>
      <rect class="c" x="96.61" y="153.04" width="47.57" height="48.53"/>
    </g>
  </g>
  <g>
    <path class="b" d="M90.94,631h-37.34v-13.22h59.44v12.42l-40.51,45.87h41.57v13.22h-63.67v-12.42l40.51-45.87Z"/>
    <path class="b" d="M163.95,617.78l28.24,71.51h-17.24l-5.71-15.92h-28.24l-5.92,15.92h-16.71l28.56-71.51h17.03ZM164.91,661.64l-9.52-26.24h-.21l-9.84,26.24h19.57Z"/>
    <path class="b" d="M243.73,636.86c-.99-1.5-2.22-2.82-3.7-3.96-1.48-1.14-3.16-2.02-5.03-2.66-1.87-.63-3.83-.95-5.87-.95-3.74,0-6.91.69-9.52,2.05-2.61,1.37-4.72,3.2-6.35,5.51-1.62,2.3-2.8,4.92-3.54,7.86-.74,2.94-1.11,5.98-1.11,9.11s.37,5.93,1.11,8.77c.74,2.84,1.92,5.39,3.54,7.66,1.62,2.27,3.74,4.09,6.35,5.46,2.61,1.37,5.78,2.05,9.52,2.05,5.07,0,9.04-1.47,11.9-4.4,2.86-2.94,4.6-6.81,5.24-11.62h16.08c-.43,4.47-1.52,8.51-3.28,12.12-1.76,3.6-4.09,6.68-6.98,9.21s-6.28,4.47-10.15,5.81-8.14,2-12.8,2c-5.79,0-10.99-.95-15.6-2.85-4.62-1.9-8.51-4.52-11.69-7.86-3.17-3.34-5.61-7.26-7.3-11.77-1.69-4.51-2.54-9.36-2.54-14.57s.85-10.3,2.54-14.87c1.69-4.57,4.13-8.56,7.3-11.97,3.17-3.41,7.07-6.08,11.69-8.01,4.62-1.94,9.82-2.9,15.6-2.9,4.16,0,8.09.57,11.79,1.7,3.7,1.14,7.02,2.79,9.94,4.96,2.93,2.17,5.34,4.86,7.25,8.06s3.1,6.88,3.6,11.02h-16.08c-.28-1.8-.92-3.45-1.9-4.96Z"/>
    <path class="b" d="M289.59,617.78v27.44h30.57v-27.44h16.61v71.51h-16.61v-30.85h-30.57v30.85h-16.6v-71.51h16.6Z"/>
    <path class="b" d="M389.01,617.78l28.24,71.51h-17.24l-5.71-15.92h-28.24l-5.92,15.92h-16.71l28.56-71.51h17.03ZM389.96,661.64l-9.52-26.24h-.21l-9.84,26.24h19.57Z"/>
    <path class="b" d="M464.58,617.78c3.39,0,6.44.52,9.15,1.55,2.71,1.04,5.04,2.45,6.98,4.26s3.42,3.89,4.44,6.26c1.02,2.37,1.53,4.92,1.53,7.66,0,4.21-.93,7.85-2.8,10.92-1.87,3.07-4.92,5.41-9.15,7.01v.2c2.05.54,3.74,1.35,5.08,2.45,1.34,1.1,2.43,2.4,3.28,3.91s1.46,3.16,1.85,4.96c.39,1.8.65,3.61.79,5.41.07,1.14.14,2.47.21,4.01.07,1.54.2,3.1.37,4.71s.46,3.12.85,4.56c.39,1.44.97,2.66,1.75,3.66h-16.61c-.91-2.27-1.48-4.97-1.69-8.11-.21-3.14-.53-6.14-.95-9.01-.56-3.74-1.76-6.48-3.6-8.21-1.84-1.73-4.83-2.6-8.99-2.6h-16.61v27.94h-16.6v-71.51h40.72ZM458.66,650.13c3.81,0,6.67-.8,8.57-2.4,1.9-1.6,2.85-4.21,2.85-7.81s-.95-5.99-2.85-7.56c-1.9-1.57-4.76-2.35-8.57-2.35h-18.19v20.13h18.19Z"/>
    <path class="b" d="M488.78,617.78h18.62l17.66,28.24,17.56-28.24h18.51l-28.03,44.07v27.44h-16.6v-27.84l-27.71-43.67Z"/>
    <path class="b" d="M34.88,717.93h47.39v3.81h-42.73v28.64h38.5v3.81h-38.5v35.25h-4.65v-71.51Z"/>
    <path class="b" d="M91.26,717.93h31.52c3.31,0,6.42.32,9.31.95,2.89.64,5.43,1.67,7.61,3.11,2.18,1.44,3.9,3.32,5.13,5.66,1.23,2.34,1.85,5.24,1.85,8.71,0,4.81-1.43,8.86-4.28,12.17-2.85,3.31-6.82,5.36-11.9,6.16v.2c3.45.4,6.19,1.27,8.2,2.6,2.01,1.34,3.51,2.97,4.49,4.91s1.62,4.07,1.9,6.41c.28,2.34.42,4.67.42,7.01v4.11c0,1.33.07,2.59.21,3.75.14,1.17.37,2.26.69,3.26.32,1,.76,1.84,1.32,2.5h-5.18c-.99-1.67-1.54-3.62-1.64-5.86-.11-2.24-.16-4.56-.16-6.96s-.11-4.79-.32-7.16c-.21-2.37-.88-4.49-2.01-6.36-1.13-1.87-2.91-3.37-5.34-4.51-2.43-1.13-5.87-1.7-10.31-1.7h-26.87v32.55h-4.65v-71.51ZM122.78,753.09c2.75,0,5.3-.32,7.67-.95,2.36-.63,4.39-1.62,6.08-2.95,1.69-1.33,3.03-3.04,4.02-5.11.99-2.07,1.48-4.54,1.48-7.41,0-2.67-.53-4.96-1.59-6.86-1.06-1.9-2.47-3.45-4.23-4.66-1.76-1.2-3.81-2.07-6.14-2.6-2.33-.53-4.76-.8-7.3-.8h-26.87v31.35h26.87Z"/>
    <path class="b" d="M184.75,717.93h5.08l29.83,71.51h-4.97l-9.52-22.94h-36.17l-9.63,22.94h-4.97l30.36-71.51ZM203.69,762.7l-16.18-40.46h-.21l-16.82,40.46h33.21Z"/>
    <path class="b" d="M227.84,717.93h50.77v3.81h-46.12v28.64h43.37v3.81h-43.37v31.45h46.65v3.81h-51.3v-71.51Z"/>
    <path class="b" d="M288.59,717.93h24.75c6.77,0,12.39,1,16.87,3s8.05,4.67,10.74,8.01c2.68,3.34,4.57,7.15,5.66,11.42,1.09,4.27,1.64,8.68,1.64,13.22,0,5.07-.69,9.8-2.06,14.17-1.38,4.37-3.51,8.16-6.4,11.37-2.89,3.2-6.54,5.73-10.95,7.56-4.41,1.84-9.64,2.75-15.71,2.75h-24.54v-71.51ZM313.55,785.64c3.53,0,7.07-.51,10.63-1.55,3.56-1.04,6.78-2.77,9.68-5.21,2.89-2.44,5.24-5.71,7.03-9.82,1.8-4.11,2.7-9.26,2.7-15.47,0-4.87-.51-9.05-1.53-12.52-1.02-3.47-2.36-6.39-4.02-8.76s-3.56-4.24-5.71-5.61c-2.15-1.37-4.37-2.42-6.67-3.16-2.29-.73-4.58-1.22-6.88-1.45-2.29-.23-4.35-.35-6.18-.35h-19.36v63.9h20.31Z"/>
    <path class="b" d="M358.18,717.93h31.52c3.31,0,6.42.32,9.31.95,2.89.64,5.43,1.67,7.61,3.11,2.18,1.44,3.9,3.32,5.13,5.66,1.23,2.34,1.85,5.24,1.85,8.71,0,4.81-1.43,8.86-4.28,12.17-2.85,3.31-6.82,5.36-11.9,6.16v.2c3.45.4,6.19,1.27,8.2,2.6,2.01,1.34,3.51,2.97,4.49,4.91s1.62,4.07,1.9,6.41c.28,2.34.42,4.67.42,7.01v4.11c0,1.33.07,2.59.21,3.75.14,1.17.37,2.26.69,3.26.32,1,.76,1.84,1.32,2.5h-5.18c-.99-1.67-1.54-3.62-1.64-5.86-.11-2.24-.16-4.56-.16-6.96s-.11-4.79-.32-7.16c-.21-2.37-.88-4.49-2.01-6.36-1.13-1.87-2.91-3.37-5.34-4.51-2.43-1.13-5.87-1.7-10.31-1.7h-26.87v32.55h-4.65v-71.51ZM389.7,753.09c2.75,0,5.3-.32,7.67-.95,2.36-.63,4.39-1.62,6.08-2.95,1.69-1.33,3.03-3.04,4.02-5.11.99-2.07,1.48-4.54,1.48-7.41,0-2.67-.53-4.96-1.59-6.86-1.06-1.9-2.47-3.45-4.23-4.66-1.76-1.2-3.81-2.07-6.14-2.6-2.33-.53-4.76-.8-7.3-.8h-26.87v31.35h26.87Z"/>
    <path class="b" d="M424.72,717.93h4.65v71.51h-4.65v-71.51Z"/>
    <path class="b" d="M439.28,753.69c0-5.21.81-10.1,2.43-14.67,1.62-4.57,3.97-8.54,7.03-11.92,3.07-3.37,6.84-6.02,11.32-7.96,4.48-1.94,9.54-2.9,15.18-2.9,4.44,0,8.28.55,11.53,1.65,3.24,1.1,5.98,2.47,8.2,4.11s4.04,3.42,5.45,5.36c1.41,1.94,2.49,3.76,3.23,5.46.74,1.7,1.25,3.17,1.53,4.41.28,1.23.42,1.92.42,2.05h-4.65c-.49-3-1.52-5.69-3.07-8.06-1.55-2.37-3.49-4.39-5.82-6.06-2.33-1.67-4.92-2.94-7.78-3.81-2.86-.87-5.87-1.3-9.04-1.3-4.94,0-9.35.9-13.22,2.7-3.88,1.8-7.16,4.22-9.84,7.26s-4.72,6.59-6.13,10.67c-1.41,4.07-2.12,8.41-2.12,13.02s.7,8.95,2.12,13.02c1.41,4.07,3.45,7.63,6.13,10.67s5.96,5.46,9.84,7.26c3.87,1.8,8.28,2.7,13.22,2.7,3.66,0,7.1-.72,10.31-2.15,3.21-1.44,6.01-3.34,8.41-5.71s4.32-5.11,5.76-8.21,2.28-6.33,2.49-9.67h4.65c-.42,4.27-1.53,8.21-3.33,11.82-1.8,3.6-4.09,6.73-6.88,9.36-2.79,2.64-6.01,4.69-9.68,6.16-3.67,1.47-7.58,2.2-11.74,2.2-5.64,0-10.7-.97-15.18-2.91-4.48-1.93-8.25-4.59-11.32-7.96-3.07-3.37-5.41-7.34-7.03-11.92-1.62-4.57-2.43-9.46-2.43-14.67Z"/>
    <path class="b" d="M515.76,717.93h4.65v32.45h48.23v-32.45h4.65v71.51h-4.65v-35.25h-48.23v35.25h-4.65v-71.51Z"/>
  </g>
</svg>