<?xml version="1.0" encoding="UTF-8"?>
<svg id="a" data-name="Layer 1" xmlns="http://www.w3.org/2000/svg" viewBox="0 0 1224 432">
  <defs>
    <style>
      .b {
        fill: #231f20;
      }

      .c {
        fill: #f04f26;
      }
    </style>
  </defs>
  <g>
    <path class="b" d="M581.93,130.29h-42.13v-14.92h67.07v14.01l-45.71,51.76h46.9v14.92h-71.84v-14.01l45.71-51.76Z"/>
    <path class="b" d="M663.86,115.37l31.86,80.69h-19.45l-6.44-17.97h-31.86l-6.68,17.97h-18.86l32.22-80.69h19.21ZM664.93,164.87l-10.74-29.61h-.24l-11.1,29.61h22.08Z"/>
    <path class="b" d="M753.24,136.9c-1.11-1.7-2.51-3.18-4.18-4.46-1.67-1.28-3.56-2.28-5.67-2.99-2.11-.72-4.32-1.08-6.62-1.08-4.22,0-7.8.78-10.74,2.32-2.94,1.54-5.33,3.62-7.16,6.21-1.83,2.6-3.16,5.56-4,8.87-.84,3.32-1.25,6.74-1.25,10.28s.42,6.69,1.25,9.89c.84,3.2,2.17,6.09,4,8.65,1.83,2.56,4.22,4.62,7.16,6.16,2.94,1.55,6.52,2.32,10.74,2.32,5.73,0,10.2-1.66,13.43-4.97,3.22-3.31,5.19-7.68,5.91-13.11h18.14c-.48,5.05-1.71,9.6-3.7,13.67-1.99,4.07-4.61,7.53-7.88,10.4-3.26,2.86-7.08,5.05-11.46,6.55-4.38,1.51-9.19,2.26-14.44,2.26-6.52,0-12.39-1.08-17.6-3.22-5.21-2.15-9.61-5.1-13.19-8.87-3.58-3.77-6.33-8.19-8.23-13.28-1.91-5.08-2.86-10.57-2.86-16.44s.95-11.62,2.86-16.78c1.91-5.16,4.65-9.66,8.23-13.5,3.58-3.84,7.98-6.85,13.19-9.04,5.21-2.18,11.08-3.28,17.6-3.28,4.69,0,9.13.64,13.31,1.92,4.18,1.28,7.92,3.15,11.22,5.6,3.3,2.45,6.03,5.48,8.17,9.1s3.5,7.76,4.06,12.43h-18.14c-.32-2.03-1.03-3.9-2.15-5.59Z"/>
    <path class="b" d="M804.45,115.37v30.96h34.49v-30.96h18.74v80.69h-18.74v-34.81h-34.49v34.81h-18.74v-80.69h18.74Z"/>
    <path class="b" d="M916.11,115.37l31.86,80.69h-19.45l-6.44-17.97h-31.86l-6.68,17.97h-18.86l32.22-80.69h19.21ZM917.18,164.87l-10.74-29.61h-.24l-11.1,29.61h22.08Z"/>
    <path class="b" d="M1000.85,115.37c3.82,0,7.26.59,10.32,1.75,3.06,1.17,5.69,2.77,7.88,4.8,2.19,2.03,3.86,4.39,5.01,7.06,1.15,2.68,1.73,5.56,1.73,8.64,0,4.75-1.06,8.85-3.16,12.32-2.11,3.47-5.55,6.1-10.32,7.91v.23c2.31.6,4.22,1.53,5.73,2.77,1.51,1.24,2.74,2.71,3.7,4.41.95,1.7,1.65,3.56,2.09,5.59.44,2.03.74,4.07.9,6.1.08,1.28.16,2.79.24,4.52.08,1.73.22,3.5.42,5.31.2,1.81.52,3.52.95,5.14.44,1.62,1.09,3,1.97,4.13h-18.74c-1.04-2.56-1.67-5.61-1.91-9.15-.24-3.54-.6-6.93-1.07-10.17-.64-4.22-1.99-7.31-4.06-9.27-2.07-1.96-5.45-2.94-10.14-2.94h-18.74v31.53h-18.74v-80.69h45.95ZM994.17,151.87c4.3,0,7.52-.9,9.67-2.71,2.15-1.81,3.22-4.75,3.22-8.81s-1.07-6.76-3.22-8.53c-2.15-1.77-5.37-2.66-9.67-2.66h-20.53v22.71h20.53Z"/>
    <path class="b" d="M1027.53,115.37h21l19.93,31.87,19.81-31.87h20.88l-31.63,49.72v30.96h-18.74v-31.41l-31.27-49.27Z"/>
    <path class="b" d="M601.62,228.38v14.92h-41.17v18.64h35.68v13.79h-35.68v33.34h-18.74v-80.69h59.91Z"/>
    <path class="b" d="M656.45,228.38c3.82,0,7.26.59,10.32,1.75,3.06,1.17,5.69,2.77,7.88,4.8,2.19,2.03,3.86,4.39,5.01,7.06,1.15,2.68,1.73,5.56,1.73,8.64,0,4.75-1.06,8.85-3.16,12.32-2.11,3.47-5.55,6.1-10.32,7.91v.23c2.31.6,4.22,1.53,5.73,2.77,1.51,1.24,2.74,2.71,3.7,4.41.95,1.7,1.65,3.56,2.09,5.59.44,2.03.74,4.07.9,6.1.08,1.28.16,2.79.24,4.52.08,1.73.22,3.5.42,5.31.2,1.81.52,3.52.95,5.14.44,1.62,1.09,3,1.97,4.13h-18.74c-1.04-2.56-1.67-5.61-1.91-9.15s-.6-6.93-1.07-10.17c-.64-4.22-1.99-7.31-4.06-9.27-2.07-1.96-5.45-2.94-10.14-2.94h-18.74v31.53h-18.74v-80.69h45.95ZM649.76,264.88c4.3,0,7.52-.9,9.67-2.71,2.15-1.81,3.22-4.75,3.22-8.81s-1.07-6.76-3.22-8.53c-2.15-1.77-5.37-2.66-9.67-2.66h-20.53v22.71h20.53Z"/>
    <path class="b" d="M740.52,228.38l31.86,80.69h-19.45l-6.44-17.97h-31.86l-6.68,17.97h-18.86l32.22-80.69h19.21ZM741.59,277.88l-10.74-29.61h-.24l-11.1,29.61h22.08Z"/>
    <path class="b" d="M843.04,228.38v14.92h-44.99v17.29h41.29v13.79h-41.29v19.78h45.95v14.92h-64.68v-80.69h63.73Z"/>
    <path class="b" d="M893.28,228.38c5.49,0,10.6.83,15.33,2.49,4.73,1.66,8.83,4.15,12.29,7.46,3.46,3.32,6.16,7.46,8.12,12.43,1.95,4.97,2.92,10.81,2.92,17.52,0,5.88-.8,11.3-2.39,16.27-1.59,4.97-4,9.27-7.22,12.88s-7.24,6.46-12.05,8.53c-4.81,2.07-10.48,3.11-17.01,3.11h-36.76v-80.69h36.76ZM891.96,294.15c2.7,0,5.33-.41,7.88-1.24,2.54-.83,4.81-2.2,6.8-4.13s3.58-4.43,4.77-7.51,1.79-6.85,1.79-11.3c0-4.07-.42-7.74-1.25-11.02s-2.21-6.08-4.12-8.42c-1.91-2.33-4.44-4.13-7.58-5.37-3.14-1.24-7.02-1.86-11.64-1.86h-13.37v50.85h16.71Z"/>
    <path class="b" d="M989.79,228.38c3.82,0,7.26.59,10.32,1.75,3.06,1.17,5.69,2.77,7.88,4.8,2.19,2.03,3.86,4.39,5.01,7.06,1.15,2.68,1.73,5.56,1.73,8.64,0,4.75-1.06,8.85-3.16,12.32-2.11,3.47-5.55,6.1-10.32,7.91v.23c2.31.6,4.22,1.53,5.73,2.77,1.51,1.24,2.74,2.71,3.7,4.41.95,1.7,1.65,3.56,2.09,5.59.44,2.03.74,4.07.9,6.1.08,1.28.16,2.79.24,4.52.08,1.73.22,3.5.42,5.31.2,1.81.52,3.52.95,5.14.44,1.62,1.09,3,1.97,4.13h-18.74c-1.04-2.56-1.67-5.61-1.91-9.15s-.6-6.93-1.07-10.17c-.64-4.22-1.99-7.31-4.06-9.27-2.07-1.96-5.45-2.94-10.14-2.94h-18.74v31.53h-18.74v-80.69h45.95ZM983.1,264.88c4.3,0,7.52-.9,9.67-2.71,2.15-1.81,3.22-4.75,3.22-8.81s-1.07-6.76-3.22-8.53c-2.15-1.77-5.37-2.66-9.67-2.66h-20.53v22.71h20.53Z"/>
    <path class="b" d="M1047.63,228.38v80.69h-18.74v-80.69h18.74Z"/>
    <path class="b" d="M1117.94,249.91c-1.11-1.7-2.51-3.18-4.18-4.46-1.67-1.28-3.56-2.28-5.67-2.99-2.11-.72-4.32-1.08-6.62-1.08-4.22,0-7.8.78-10.74,2.32-2.94,1.54-5.33,3.62-7.16,6.21-1.83,2.6-3.16,5.56-4,8.87-.84,3.32-1.25,6.74-1.25,10.28s.42,6.69,1.25,9.89c.84,3.2,2.17,6.09,4,8.65,1.83,2.56,4.22,4.62,7.16,6.16,2.94,1.55,6.52,2.32,10.74,2.32,5.73,0,10.2-1.66,13.43-4.97,3.22-3.31,5.19-7.68,5.91-13.11h18.14c-.48,5.05-1.71,9.6-3.7,13.67-1.99,4.07-4.61,7.53-7.88,10.4-3.26,2.86-7.08,5.05-11.46,6.55-4.38,1.51-9.19,2.26-14.44,2.26-6.52,0-12.39-1.08-17.6-3.22-5.21-2.15-9.61-5.1-13.19-8.87-3.58-3.77-6.33-8.19-8.23-13.28-1.91-5.08-2.86-10.57-2.86-16.44s.95-11.62,2.86-16.78c1.91-5.16,4.65-9.66,8.23-13.5,3.58-3.84,7.98-6.85,13.19-9.04,5.21-2.18,11.08-3.28,17.6-3.28,4.69,0,9.13.64,13.31,1.92,4.18,1.28,7.92,3.15,11.22,5.6,3.3,2.45,6.03,5.48,8.17,9.1s3.5,7.76,4.06,12.43h-18.14c-.32-2.03-1.03-3.9-2.15-5.59Z"/>
    <path class="b" d="M1169.15,228.38v30.96h34.49v-30.96h18.74v80.69h-18.74v-34.81h-34.49v34.81h-18.74v-80.69h18.74Z"/>
  </g>
  <g>
    <path class="b" d="M359.9,430.73H103.56c-58,0-105.18-43.42-105.18-96.79V98.06C-1.62,44.68,45.56,1.27,103.56,1.27h256.34c58,0,105.18,43.42,105.18,96.79v235.89c0,53.37-47.18,96.79-105.18,96.79ZM103.56,18.4c-47.73,0-86.56,35.73-86.56,79.66v235.89c0,43.92,38.83,79.66,86.56,79.66h256.34c47.73,0,86.56-35.73,86.56-79.66V98.06c0-43.92-38.83-79.66-86.56-79.66H103.56Z"/>
    <g>
      <path class="b" d="M170.45,159.89h-102.64v-38.38h163.41v36.06l-111.37,133.18h114.27v38.38H59.08v-36.06l111.37-133.17Z"/>
      <path class="b" d="M404.38,121.5v38.38h-100.32v47.98h86.94v35.47h-86.94v85.78h-45.65V121.5h145.97Z"/>
      <rect class="c" x="67.81" y="121.51" width="37.59" height="38.34"/>
    </g>
  </g>
</svg>